<svg width="744" height="744" viewBox="0 0 744 744" fill="none" xmlns="http://www.w3.org/2000/svg">
<path d="M368.318 1.02775C364.561 3.52452 366 11.153 366 15C366 28.5582 362.733 46.888 366.318 59.9413C367.371 63.7757 372.419 65.1412 375.682 62.9722C379.439 60.4755 378 52.8469 378 49C378 35.4418 381.267 17.112 377.682 4.05863C376.629 0.224341 371.581 -1.14113 368.318 1.02775ZM187.059 48.7616C180.982 51.0205 183.528 57.9042 185.735 62C192.111 73.8353 199.141 85.351 205.85 97C208.116 100.933 211.322 107.327 216.941 105.238C223.018 102.979 220.472 96.0958 218.265 92C211.889 80.1648 204.859 68.6489 198.15 57C195.884 53.0669 192.678 46.6727 187.059 48.7616ZM552.104 49.0432C547.732 51.3074 545.335 57.9375 543 62C536.817 72.7592 528.99 83.5361 524.214 95C522.223 99.7784 524.181 107.555 530.957 105.353C535.672 103.82 538.162 96.9412 540.421 93C546.798 81.8766 556.029 70.1492 560.184 58C561.938 52.8723 558.257 45.8571 552.104 49.0432ZM54.2285 180.029C48.7979 183.308 52.1477 189.114 56.0194 191.756C67.0469 199.281 79.4212 205.35 91.0001 212C94.9865 214.289 101.024 218.838 105.772 215.971C111.202 212.692 107.852 206.886 103.981 204.244C92.9533 196.719 80.579 190.65 69.0001 184C65.0137 181.711 58.9764 177.162 54.2285 180.029ZM683 179.816C668.926 184.629 650.9 195.906 639.059 204.904C634.069 208.696 634.362 217.109 642.004 216.809C646.621 216.627 651.13 213.059 655 210.85C665.135 205.065 684.539 198.291 691.393 188.79C695.766 182.728 688.668 177.877 683 179.816ZM2.31801 367.028C-1.56543 369.619 -0.281754 376.49 4.05875 377.682C16.8276 381.189 34.7385 378 48.0001 378C51.8789 378 59.3879 379.408 62.3967 376.397C65.4134 373.378 63.9941 367.431 59.9415 366.318C47.457 362.889 29.965 366 17.0001 366C12.9353 366 5.8523 364.669 2.31801 367.028ZM682.318 367.028C678.434 369.619 679.718 376.49 684.059 377.682C696.828 381.189 714.738 378 728 378C731.879 378 739.388 379.408 742.397 376.397C745.413 373.378 743.994 367.431 739.941 366.318C727.457 362.889 709.965 366 697 366C692.935 366 685.852 364.669 682.318 367.028ZM99.0001 527.816C84.9261 532.629 66.9002 543.906 55.0587 552.904C50.0692 556.696 50.3626 565.109 58.004 564.809C62.6213 564.627 67.1297 561.059 71.0001 558.85C81.135 553.065 100.539 546.291 107.393 536.79C111.766 530.728 104.668 525.877 99.0001 527.816ZM638.228 528.029C632.798 531.308 636.148 537.114 640.019 539.756C651.047 547.281 663.421 553.35 675 560C678.986 562.29 685.024 566.838 689.772 563.971C695.202 560.692 691.852 554.886 687.981 552.244C676.953 544.719 664.579 538.65 653 532C649.014 529.711 642.976 525.162 638.228 528.029ZM212.104 639.043C207.732 641.307 205.335 647.938 203 652C196.817 662.759 188.99 673.536 184.214 685C182.223 689.778 184.181 697.555 190.957 695.353C195.672 693.82 198.162 686.941 200.421 683C206.798 671.877 216.029 660.149 220.184 648C221.938 642.872 218.257 635.857 212.104 639.043ZM527.059 638.762C520.982 641.021 523.528 647.904 525.735 652C532.111 663.835 539.141 675.351 545.85 687C548.116 690.933 551.322 697.327 556.941 695.238C563.018 692.979 560.472 686.096 558.265 682C551.889 670.165 544.859 658.649 538.15 647C535.884 643.067 532.678 636.673 527.059 638.762ZM368.318 681.028C364.561 683.525 366 691.153 366 695C366 708.558 362.733 726.888 366.318 739.941C367.371 743.776 372.419 745.141 375.682 742.972C379.439 740.475 378 732.847 378 729C378 715.442 381.267 697.112 377.682 684.059C376.629 680.224 371.581 678.859 368.318 681.028Z" fill="white"/>
</svg>
