<?xml version="1.0" encoding="UTF-8" standalone="no"?>
<!DOCTYPE svg PUBLIC "-//W3C//DTD SVG 1.1//EN" "http://www.w3.org/Graphics/SVG/1.1/DTD/svg11.dtd">
<svg width="100%" height="100%" viewBox="0 0 511 511" version="1.1" xmlns="http://www.w3.org/2000/svg" xmlns:xlink="http://www.w3.org/1999/xlink" xml:space="preserve" xmlns:serif="http://www.serif.com/" style="fill-rule:evenodd;clip-rule:evenodd;stroke-linecap:round;stroke-linejoin:round;stroke-miterlimit:1.5;">
    <g transform="matrix(1.0932,0,0,1.0932,-23.8136,-23.8136)">
        <g transform="matrix(1,0,0,1,-48.6831,-73.0375)">
            <circle cx="304.183" cy="328.537" r="211.956" style="fill:rgb(227,98,178);stroke:white;stroke-width:27.44px;"/>
        </g>
        <g transform="matrix(1,0,0,1,117.146,39.6981)">
            <path d="M79.672,333.227C92.214,357.367 110.378,377.285 137.567,386.049C154.253,391.429 173.403,388.47 187.691,378.311C201.98,368.155 211.06,351.036 211.461,333.508C211.914,313.652 202.038,295.141 198.222,275.644C189.497,231.052 234.993,186.592 203.329,145.461C179.165,114.077 131.415,109.89 97.197,125.5C54.16,145.13 46.152,198.05 53.119,240.939C57.82,269.913 64.776,304.549 79.672,333.227Z" style="fill:rgb(252,252,252);fill-rule:nonzero;"/>
            <g transform="matrix(1.02766,0,0,1,-3.30356,2.84217e-14)">
                <path d="M198.226,275.644C202.038,295.141 211.91,313.652 211.457,333.508C211.06,351.036 201.976,368.155 187.688,378.311C173.399,388.47 154.253,391.433 137.563,386.049C131.025,383.94 124.998,381.18 119.45,377.862C135.002,381.418 152.046,378.147 165.056,368.891C179.344,358.732 188.424,341.613 188.826,324.085C189.286,304.233 179.403,285.718 175.594,266.221C166.869,221.633 212.362,177.165 180.697,136.042C175.52,129.317 169.267,123.843 162.288,119.551C178.35,123.59 192.997,132.034 203.329,145.461C234.993,186.588 189.493,231.056 198.226,275.644Z" style="fill:rgb(255,176,225);fill-rule:nonzero;"/>
            </g>
            <g>
                <path d="M254.085,107.925C261.391,92.506 256.303,74.791 242.728,68.358C229.149,61.926 212.222,69.212 204.916,84.631C197.61,100.05 202.697,117.766 216.276,124.198C229.851,130.631 246.783,123.344 254.085,107.925Z" style="fill:rgb(252,252,252);fill-rule:nonzero;"/>
                <path d="M185.134,76.76C189.138,62.007 181.855,47.193 168.869,43.668C155.883,40.144 142.109,49.239 138.105,63.992C134.101,78.74 141.384,93.555 154.37,97.079C167.356,100.608 181.13,91.508 185.134,76.76Z" style="fill:rgb(252,252,252);fill-rule:nonzero;"/>
                <path d="M116.113,71.668C113.836,58.113 102.315,48.752 90.378,50.756C78.444,52.764 70.616,65.376 72.893,78.927C75.173,92.483 86.694,101.844 98.627,99.84C110.561,97.836 118.39,85.22 116.113,71.668Z" style="fill:rgb(252,252,252);fill-rule:nonzero;"/>
                <path d="M57.423,96.346C50.577,87.824 38.943,85.801 31.439,91.828C23.934,97.855 23.396,109.652 30.242,118.175C37.088,126.697 48.721,128.721 56.226,122.693C63.731,116.666 64.265,104.873 57.423,96.346Z" style="fill:rgb(252,252,252);fill-rule:nonzero;"/>
            </g>
            <path d="M25.341,139.847C15.033,136.214 4.078,140.623 0.877,149.703C-2.324,158.779 3.442,169.087 13.75,172.721C24.058,176.358 35.014,171.945 38.214,162.865C41.415,153.789 35.649,143.481 25.341,139.847Z" style="fill:rgb(252,252,252);fill-rule:nonzero;"/>
        </g>
    </g>
</svg>
